<svg width="614" height="362" version="1.1" id="Layer_1" xmlns="http://www.w3.org/2000/svg" xmlns:xlink="http://www.w3.org/1999/xlink" x="0px" y="0px"
	 viewBox="0 0 614 362" style="enable-background:new 0 0 614 362;" xml:space="preserve">
<style type="text/css">
	.st0{fill:#E6EBF7;}
	.st1{fill:#96D9C9;}
	.st2{fill:#FFFFFF;}
	.st3{fill:#231F20;}
	.st4{fill:#EAFCFC;}
	.st5{fill:#C0DDE3;}
	.st6{fill:#183658;}
	.st7{fill:#184655;}
	.st8{opacity:0.3;fill:#DAEEF7;enable-background:new    ;}
	.st9{opacity:0.2;fill:#3CB4C5;enable-background:new    ;}
	.st10{fill:#1A1A1A;}
	.st11{fill:#9E9DA2;}
	.st12{fill:#D8D9DD;}
	.st13{fill:#F7CC7F;}
	.st14{fill:#CF283C;}
	.st15{fill:#F3FCFF;}
	.st16{fill:#EAB054;}
	.st17{opacity:0.5;fill:#FEB546;enable-background:new    ;}
	.st18{fill:#F7A491;}
	.st19{fill:#F48C7F;}
	.st20{fill:#355389;}
	.st21{fill:#466EB6;}
	.st22{fill:#3C8F7C;}
	.st23{fill:#50BFA5;}
	.st24{fill:#F8A492;}
	.st25{fill:#F47458;}
</style>
<g>
	<polygon class="st0" points="613.8,356 613.8,268.7 584.1,268.7 584.1,204.4 555.4,204.4 555.4,233 531.7,233 531.7,223.8 
		531.7,167 492.9,167 492.9,227.4 481.2,227.8 481.2,166.9 467.7,166.9 467.7,140.9 459.6,140.9 459.6,123.5 427.8,123.5 
		427.8,140.9 419.7,140.9 419.7,166.9 406.1,166.9 406.1,199.9 399.9,200.3 398,102.6 356.2,102.6 356.2,154.5 341.5,154.9 
		341.5,73.7 336.5,73.7 336.5,56.6 292.3,56.6 292.3,73.7 287.3,73.7 287.3,183.1 278,183.1 278,149 270.3,149 270.3,132.3 
		259,132.3 259,83.6 242.8,83.6 242.8,132.3 231.5,132.3 231.5,149 223.8,149 223.8,206.8 218.4,206.8 214.1,206.7 214.1,139.8 
		99.5,140.9 99.5,291.5 89.9,291.5 89.9,271.8 55,271.8 55,309.7 44.9,309.7 44.9,295.8 22.9,295.8 22.9,319.8 22.9,324.1 
		0.8,324.1 0.8,356 	"/>
	<path class="st1" d="M159.2,354.5c4.6-3.9,7.4-8.1,6.6-12.2c-1.3-7.4-11.8-2.6-12.1-8c-0.7-9.3,39.3-7.1,38-19
		c-1.3-11.6-30.7,7.4-31.9-1c-0.8-5.2,43.7-4.7,44.6-16.5c0.9-11.8-32.2-0.4-38.7-3.9c-6.5-3.5,62.7-24.5,55.8-39.9
		c-5.6-12.6-51.8,16.9-59.4,13.9c-7.6-3,29.3-27.9,40.7-50.7c11.8-23.6,2.1-35.4-16.5-16.7s-49.4,54.5-50.6,43.8
		c-1.3-10.8,19.7-50.6,2.7-47.7c-30,5.3-32.4,54.8-41.7,93.6c-1,4.1-11-44.2-23.2-29.6c-6.3,7.5,5.3,62.6,12.6,93.9L159.2,354.5
		L159.2,354.5z"/>
	<ellipse class="st2" cx="302.9" cy="117.9" rx="15.9" ry="15.9"/>
	<g>
		<path class="st3" d="M237,1.1L237,1.1C236.9,1.1,236.9,1.1,237,1.1c-0.5-0.2-0.9-0.3-1.3-0.4c-0.2,0-0.3-0.1-0.4-0.1
			s-0.3-0.1-0.5-0.1c-0.2,0-0.3-0.1-0.5-0.1c-0.2,0-0.3-0.1-0.5-0.1c-0.2,0-0.4-0.1-0.5-0.1c-0.2,0-0.3,0-0.4-0.1
			c-0.2,0-0.4,0-0.6-0.1c-0.1,0-0.3,0-0.4,0c-0.2,0-0.4,0-0.6,0c-0.1,0-0.2,0-0.4,0c-0.3,0-0.7,0-1,0H76.4c-0.4,0-0.7,0-1.1,0
			c-0.7,0-1.4,0.1-2.1,0.2c-0.4,0-0.7,0.1-1,0.2c-8.8,1.8-15.5,9.1-16.4,18.2c-0.1,0.7-0.1,1.4-0.1,2.1V277v58.5
			c0,9,5.7,16.6,13.7,19.5l0,0c0,0,0.1,0,0.1,0c0.4,0.1,0.8,0.3,1.2,0.4c0.2,0,0.3,0.1,0.4,0.1c0.2,0,0.3,0.1,0.5,0.1
			c0.2,0,0.3,0.1,0.5,0.1c0.2,0,0.3,0.1,0.5,0.1c0.2,0,0.4,0.1,0.5,0.1s0.3,0,0.4,0.1c0.2,0,0.4,0,0.6,0.1c0.1,0,0.3,0,0.4,0
			c0.2,0,0.4,0,0.6,0c0.1,0,0.2,0,0.4,0c0.3,0,0.7,0,1,0h153.5c0.7,0,1.4,0,2.1-0.1c9.7-1,17.5-8.8,18.5-18.5
			c0.1-0.7,0.1-1.4,0.1-2.1V79.1V20.6C250.6,11.6,244.9,4,237,1.1z"/>
		<g>
			<rect x="65.8" y="28.2" class="st4" width="175.4" height="299.7"/>
			<path class="st2" d="M241.2,154.4l-50.6-4.2l-1.4-29.7l-12.4-0.5V99.8l64.5,27.7v-5.7l-21.4-9.2l-4-84.5h-5.2l3.9,82.2
				l-37.8-16.2v-0.6h-1.3l-8.6-3.7l0-61.7h-5.2l0,59.5l-52.4-22.5V28.2H98.7v32.6l-33-14.1v5.7l33,14.1v33L65.8,84v5.8l33,15.4v19.5
				l-29.8,37.8l-3.2,0.1v5.2l26.2-0.5v35.6l27.4,15.2l-28.7,12.6l-24.9-17.7v6.4L89.2,236l0,0l-5.7,91.9h10.5l3.5-57.1l44.1,16.1
				l-5.1,41h5.3l4.8-39.1l43.1,15.7l-7.5,23.4h5.5l7-21.6l46.5,17v-5.6l-44.9-16.4l12.7-39.5l-16.3-9c5.6-6.9,17.9-21.6,30.1-36.5
				c7.8-9.5,13.8-16.9,18.4-22.6v-8.3c-5.8,7.2-13.2,16.3-21.2,26.1L192.7,194l-1.9-38.5l50.4,4.1L241.2,154.4L241.2,154.4z
				 M179.2,130.6l2.9,59l-31.5-27.3v-32.9L179.2,130.6z M109.2,70.9l62.3,26.7v22.2l-62.3-2.6L109.2,70.9L109.2,70.9z M75.7,162.4
				l27.5-34.9l42.2,1.8V161L75.7,162.4z M97.2,199.7v-32.6l49.8-1l30.3,26.3l-52,22.9L97.2,199.7z M202.7,264.3l-11.3,35.2
				l-93.5-34.2l1.7-27.3l31.2-13.7L202.7,264.3z M216.6,215.5c-9.6,11.7-19.7,24-28.6,34.7l-51.3-28.5l53.1-23.3L216.6,215.5z"/>
			<g>
				<g>
					<polygon class="st5" points="192.4,304.6 90.1,268 91.9,234.6 181.7,195 146.2,164.5 146.2,126 102.1,124.7 102.1,89.7 
						105.8,89.7 105.8,121.1 149.9,122.4 149.9,162.8 188.6,196 95.5,237.1 93.9,265.4 193.7,301.1 					"/>
				</g>
			</g>
			<path class="st6" d="M94.3,77.2l9.5,19l10-18.7c3-6.9-1.8-14.7-9.3-15c-0.1,0-0.2,0-0.3,0s-0.2,0-0.3,0
				C96.5,62.6,91.5,70.3,94.3,77.2z M99.2,73.3c0-2.7,2.3-4.9,5-4.9c2.7,0,4.9,2.3,4.9,5c0,2.7-2.3,4.9-5,4.9
				C101.3,78.3,99.2,76,99.2,73.3z"/>
			<path class="st7" d="M183.2,285.6l9.5,19l10-18.7c3-6.9-1.8-14.7-9.3-15c-0.1,0-0.2,0-0.3,0c-0.1,0-0.2,0-0.3,0
				C185.3,271,180.4,278.7,183.2,285.6z M188.1,281.7c0-2.7,2.3-4.9,5-4.9c2.7,0,4.9,2.3,4.9,5s-2.3,4.9-5,4.9
				C190.2,286.7,188,284.4,188.1,281.7z"/>
		</g>
		<path class="st2" d="M190.5,18.8h-74.4c-0.1,0-0.2-0.1-0.2-0.2v-3.4c0-0.1,0.1-0.2,0.2-0.2h74.4c0.1,0,0.2,0.1,0.2,0.2v3.4
			C190.7,18.7,190.6,18.8,190.5,18.8z"/>
		<path class="st8" d="M161.6,342.3c0,4.7-3.9,8.6-8.6,8.6c-4.7,0-8.6-3.9-8.6-8.6c0-4.7,3.9-8.6,8.6-8.6
			C157.8,333.7,161.6,337.6,161.6,342.3z"/>
		<rect x="65.8" y="315.3" class="st9" width="174.8" height="12.6"/>
		<rect x="65.8" y="28.2" class="st9" width="175.4" height="15.9"/>
	</g>
	<g>
		<path class="st6" d="M144.1,313.8c0,0,82.8,13.7,83.8,13.2s11.7-46.9,11.7-46.9s-68.5-12.3-69.6-12.3c-1.1,0-16,11.9-16.2,12.7
			C153.6,281.3,144.1,313.8,144.1,313.8z"/>
		<path class="st6" d="M396.8,325.6c2,0.2,102.3-1.9,102.3-1.9l-7.6-23.1c0,0-13.9-21-21.3-20.6c-7.4,0.4-51.1-6.7-58.6-1.5
			c-7.6,5.2-14.3,1.1-17.9,13.6c-3.6,12.5-6.4,13.9-3.6,21.5C393,321,396.8,325.6,396.8,325.6z"/>
		<g>
			
				<ellipse transform="matrix(2.158140e-03 -1 1 2.158140e-03 -136.5047 507.2741)" class="st10" cx="185.9" cy="322" rx="34.2" ry="34.1"/>
			<ellipse class="st11" cx="185.9" cy="322.1" rx="23.7" ry="23.8"/>
			<ellipse class="st12" cx="185.9" cy="322.1" rx="15.9" ry="15.9"/>
		</g>
		<g>
			
				<ellipse transform="matrix(2.466907e-03 -1 1 2.466907e-03 125.7011 770.0742)" class="st10" cx="448.8" cy="322" rx="34.2" ry="34.1"/>
			<ellipse class="st11" cx="448.8" cy="322.1" rx="23.7" ry="23.8"/>
			
				<ellipse transform="matrix(0.1602 -0.9871 0.9871 0.1602 59.0597 713.5179)" class="st12" cx="448.8" cy="322.1" rx="15.9" ry="15.9"/>
		</g>
		<path class="st13" d="M527.3,289.5c-2.9-19-12.2-23-39.8-28.6c-30.5-6.1-69.1-26-69.1-26s-66-32.3-82.1-36
			c-16.2-3.7-55.9-2.6-89.3-2.4c-33.4,0.3-53,9.5-69.9,22.8s-46.4,23.3-46.4,23.3l-5.3,1c-5.5,1-9.5,5.8-9.5,11.3v47.2
			c0,5.3,3.6,10,8.8,11.4l19.3,5.1l0,0c1.6,0.3,3-0.9,3.2-2.4c2.1-19.3,18.8-34,38.7-34c21.2,0,38.5,17.4,38.5,38.6
			c0,2.4-0.2,4.8-0.7,7c-0.4,2.4,1.4,4.5,3.8,4.5h177.7c3.5,0,6.1-3,5.7-6.5c-0.2-1.6-0.3-3.3-0.4-5c-0.1-20.9,16.9-38.3,37.8-38.7
			c21.7-0.4,39.4,17,39.4,38.6c0,1.4-0.1,2.8-0.2,4.2c-0.4,3.9,2.6,7.4,6.6,7.4h25.5c4.6,0,8.4-3.8,8.4-8.4v-24.7
			C528,296.1,527.7,292.8,527.3,289.5z"/>
		<path class="st14" d="M116.9,260.6h21c1.8,0,3,1.8,2.3,3.5l-2.4,5.6c-2.3,5.4-7.5,8.9-13.4,8.9h-7.7c-1.5,0-2.7-1.2-2.7-2.7v-12.6
			C114.2,261.8,115.4,260.6,116.9,260.6z"/>
		<path class="st15" d="M493.8,269.3c11.6,1.8,24.9,12.7,24.9,12.7c3.2,3.4,0.5,9-4.1,8.7l-22.6-1.4c-4.7-0.3-8.7-3.5-10-8l0,0
			C479.8,273.7,481.7,267.5,493.8,269.3z"/>
		<path class="st16" d="M115.9,304c-1.4,0-2.5,1.4-1.9,2.8c1.5,3.8,4.7,6.8,8.9,7.9l21.6,5.7c1.8,0.3,3.4-0.9,3.6-2.7
			c0.4-3.7,1.3-7.2,2.6-10.5c0.4-1.1-0.4-2.3-1.6-2.4L115.9,304z"/>
		<path class="st16" d="M487.8,312.9c-1.6,0-2.9,1.4-2.7,3c0.2,1.8,0.4,3.7,0.4,5.5c0,1.6-0.1,3.2-0.3,4.7c-0.5,4.4,2.9,8.2,7.3,8.2
			h28.3c5.1,0,9.3-4.2,9.3-9.3v-7.3c0-2.1-1.7-3.8-3.7-3.8L487.8,312.9z"/>
		<path class="st17" d="M418.3,246c-0.4-0.2-37.9-20.8-62.8-32.4c-24.6-11.4-52.2-10.2-53.4-10.2c-3.2-0.1-69-1.5-89.3,4.8
			c-20.4,6.3-47,35.3-48.1,36.5l-0.3,0.4l7.1,33.5l0.8,0c20.8-1.2,36.7,4.4,46,16c7,8.8,7.9,18.1,7.9,18.2l0.1,0.8l74.9,1.9l0,0
			l0.9,0l0.9,0l0,0l104.3,2l0-0.9c0.5-33.9,11.3-69.3,11.4-69.7l0.2-0.7L418.3,246z M228,311.8c-0.4-2.5-1.9-10.5-8.1-18.3
			c-6.7-8.4-20.2-18.1-46.8-16.8l-6.6-31.1c3.1-3.3,28.2-29.9,47-35.7c18.8-5.8,79.8-4.9,87.8-4.7v108.5L228,311.8z M405.6,315.8
			l-102.6-2V205.2c4.8-0.1,29.5-0.3,51.7,10c23.1,10.7,57,29.2,62.1,31.9C415.3,252.3,406.3,284.5,405.6,315.8z"/>
		<path class="st17" d="M114,306.8c1.5,3.8,4.7,6.8,8.9,7.9l21.6,5.7c1.8,0.3,3.4-0.9,3.6-2.7c0.2-1.4,0.4-2.8,0.7-4.2L114,306.8z"
			/>
		<path class="st17" d="M485.4,323.5c0,0.9-0.1,1.8-0.2,2.7c-0.5,4.4,2.9,8.2,7.3,8.2h28.3c5.1,0,9.3-4.2,9.3-9.3v-1.5L485.4,323.5
			L485.4,323.5L485.4,323.5z"/>
		<path class="st16" d="M412.1,323.5c0-1.9,0.1-3.8,0.4-5.7c0.3-2.2-1.3-4.3-3.6-4.3l-184.8-4.5c-2,0-3.5,1.9-2.9,3.8
			c1,3.4,1.5,6.9,1.5,10.6c0,2.4-0.2,4.8-0.7,7.1c-0.4,2.4,1.4,4.7,3.8,4.7h180.8c3.5,0,6.2-3.1,5.8-6.7
			C412.3,326.9,412.1,325.2,412.1,323.5z"/>
		<path class="st17" d="M412.1,323.5C412.1,323.5,412.1,323.4,412.1,323.5l-189.4-0.1c0,2.4-0.2,4.8-0.7,7.1
			c-0.4,2.4,1.4,4.7,3.8,4.7h180.8c3.5,0,6.2-3.1,5.8-6.7C412.3,326.9,412.1,325.2,412.1,323.5z"/>
		<path class="st16" d="M206.3,259.4h-23.1c-0.5,0-1-0.4-1-1v-2.1c0-0.5,0.4-1,1-1h23c0.5,0,1,0.4,1,1v2.1
			C207.3,259,206.8,259.4,206.3,259.4z"/>
		<path class="st16" d="M333.4,261.4h-23c-0.5,0-1-0.4-1-1v-2.1c0-0.5,0.4-1,1-1h23c0.5,0,1,0.4,1,1v2.1
			C334.4,261,333.9,261.4,333.4,261.4z"/>
		<path class="st6" d="M186.7,249.1l102.1,1c0,0,6.3-0.2,7.1-6c0.9-5.9,0.8-31.1,0.8-31.1s-0.7-5.1-5.6-5.1
			c-2.9,0-27.6-1.8-51.6,1.1c-19.6,2.4-37.7,11.3-51.4,25.1l-7.2,7.2C180.8,241.3,175.9,249,186.7,249.1z"/>
		<path class="st6" d="M308,216.2v26.4c0,3.4,2.6,6.3,6,6.4l80.2,3.2c1.8,0.1,3.7-0.8,4.7-2.3c1.4-2.1,1.6-5.6-5.6-10.3
			c-12.5-8.1-44.3-25.8-56.1-27.4c-7.5-1.1-17.3-1.6-23.4-1.8C310.6,210.3,308,212.9,308,216.2z"/>
	</g>
	<g>
		<path class="st6" d="M477.7,220.1l-0.5,0.5c-0.3,0.2-0.7,0.2-0.9,0l-9.3-10.3c-0.2-0.3-0.2-0.7,0.1-0.9l0.5-0.5
			c0.3-0.2,0.7-0.2,0.9,0l9.3,10.3C478,219.5,478,219.9,477.7,220.1z"/>
		<path class="st18" d="M509.4,211.7c-1.2-1-10.9,3.2-10.8,4.7c0.1,1.5-6.7,15.8-6.7,15.8l-11.9-9.5l0,0c-0.1-0.4-1.2-4-1.3-4.7
			c-0.1-0.7-2.1-1.9-3-1.7c-0.9,0.2,0.8,1.4,0.9,1.6c0.3,0.6-0.9,0.8-0.9,0.8s-3.4-1.9-3.5-3c-0.1-1.1-0.8-3.4-1.5-3
			c-0.4,0.2-0.4,1.9-0.3,2.7c-0.2-0.9-0.5-1.9-0.8-2c-0.5-0.2-0.8,0.5-0.7,0.9c0.1,0.4,1,4.1,1.3,4.6c0.3,0.4,5.8,4.9,6.6,5.9
			c0,0,15.3,17.6,16.4,18.1c1,0.4,4.4-5.7,7.6-9.7C504,229.1,513.3,214.9,509.4,211.7z"/>
		<path class="st19" d="M540.3,341.1c0,0,2.1,2.1,2.2,2.8c0,0.8,0.2,8.9-0.7,9.6c-0.9,0.8-3.4,1.3-2.6,2.1c0.6,0.6,5.3,0.5,8.5,0.3
			c0.9,0,2.1-7.4,2.4-8.4c0.5-1.6,1.8-5.1,1.3-6.2c-0.2-0.5-1.4-1.6-2.9-2.6c-1.6-1.1-3.2-3.5-3.2-3.5L540.3,341.1z"/>
		<path class="st18" d="M518.5,345.9c0,0,1.9,5.3,1.9,5.4c0.1,0.9,0.7,2.9,0.7,3.7c0,2.9-13-2.5-10.1-3.7c0.3-0.1,1.1-1.1,1.2-2
			c0.1-1.5-1.1-3.4-1.1-3.4L518.5,345.9z"/>
		<g>
			<path class="st20" d="M498.1,246.3c0,0-0.9,9.6-0.9,9.7c0,15.5-3.1,45.8-2.5,48.7c1.4,7.1,16.7,43.4,16.7,43.4l8.3-1l-10.8-43.4
				l4-17.5l5.6-34.6L498.1,246.3z"/>
			<path class="st21" d="M525.8,254.8l1.6,9.1l4.2,37.4l16.2,36.6c0,0-2.3,5.3-5.6,6.1l-25.7-37.5l-16-48l0.6-10.7L525.8,254.8z"/>
		</g>
		<path class="st22" d="M494.8,223.5l11.5,1.2c0,0,0.5-9.4,0.5-13.9c0-5.5-0.5-12.5-1.1-12.3c-1.8,0.4-4.3,1.4-5.8,3.5
			C494.7,209,494.8,223.5,494.8,223.5z"/>
		<path class="st23" d="M500.4,209.8c-0.2,1.7-4.6,46.9-4.6,46.9c20.9,10.1,32.4,1.8,32.4,1.8s-0.7-31.8,0.1-36.1
			c0.5-2.9,1.2-21.9-0.6-22.4c-2.4-0.7-5.1-1.4-8.1-1.7c-2.5-0.3-12.3-0.4-14.1,0.2C505.5,198.5,501.4,202.8,500.4,209.8z"/>
		<path class="st23" d="M548.4,338.8c0,0-4.9,13.7-6.8,14.4c-0.5,0.2-2.9,0.6-3.4,1.7c-0.1,0.3,0,1.4,0,1.4h10.1c0,0,1.3-6,1.8-8.7
			c0,0,2.7-6.5,2.4-7.1C552.3,339.9,548.4,338.8,548.4,338.8z"/>
		<path class="st23" d="M521.8,356l-1.5-4.7c0,0-3.1,1.3-4.7,1.1c-1.6-0.2-4.6-1.1-4.6-1.1c-6.2,2.1-11.4,3.1-10.4,4.7l0,0H521.8z"
			/>
		<g>
			<path class="st18" d="M493.2,242.8c0,0-0.2-0.2-0.3-0.2c0.4-4.4,0.3-8.7-1.1-10.2c0-0.1,0.3-0.7,0.7-1.4c1.6,1.2,2.4,4.6,2.1,9.9
				c0,0.4-0.1,0.7-0.2,1.1C493.8,242.6,493.4,242.9,493.2,242.8z"/>
		</g>
		<path class="st24" d="M548.8,257.2c0-0.1,0-0.2,0-0.3c-0.3-3.1-2.9-29.4-3.3-30.6c-0.4-1-12-17.7-12-17.7l-5.7,7.8l11.2,15
			c0.2,0.9,4.3,18.7,4.3,18.7s0.8,3.2,1.2,5.2c-0.2,0.5-0.3,0.9-0.5,1.3c-0.4,0.8-0.8,1.4-1.2,1.9c-0.5,0.7-1.3,2.1-1.4,2.5
			c-0.1,0.5-0.3,1.4-0.5,2c-0.1,0.6-0.3,1.2-0.3,1.6c0,0.2-0.2,0.6-0.4,0.8c-0.2,0.4,0.2,0.9,0.6,0.7c0.4-0.1,0.7-0.7,0.9-1
			c0.5-0.9,0.9-2.6,1-2.5s0.6,3,0.7,3.3s0.7,3.7,1,4.3c0.3,0.6,0.8,0.5,0.9,0.1c0.1-0.3-0.4-5-0.4-5s-0.1-0.6,0.2-0.4
			c0.3,0.2,0.7,4.4,0.9,5.1c0.2,0.6,0.6,0.9,0.9,0.5c0.4-0.6-0.3-5.1-0.3-5.1s-0.1-0.6,0.2-0.5c0.2,0.1,0.5,3.7,0.7,4
			c0.2,0.3,0.7,0.4,0.9-0.1c0.3-0.6-0.4-4.6-0.4-4.6s0-0.3,0.2-0.2c0.2,0.1,0.6,3.2,0.9,3.5c0.3,0.2,0.5,0,0.5,0
			c0.6-0.4-0.3-3.3-0.3-4.7c0-1.4-0.7-3.1-0.5-4.8C548.8,257.6,548.8,257.3,548.8,257.2z"/>
		<path class="st22" d="M542.6,219.2l-9.9,6.7c0,0-5.6-8.4-8.6-11.3c-3.8-3.7,1.4-15.1,3.8-14.5
			C533.3,201.5,542.6,219.2,542.6,219.2z"/>
		<path class="st18" d="M518.9,188.5l1.5,9.8c0,0-5.4,11.7-8.7,10.7c-2.7-0.9-1.1-11.2-1.1-11.2s1.5-5.6,1-8.3
			C511.3,186.7,518.9,188.5,518.9,188.5z"/>
		<path class="st25" d="M511.7,189.5c-0.4-2.8,7.2-1,7.2-1l0.1,0.8c-0.2,0.5-0.5,1-0.8,1.4c-1.7,1.8-4.4,3-6.7,3
			C511.7,192.2,511.9,190.6,511.7,189.5z"/>
		<g>
			<path class="st18" d="M520.1,174.6c0.2-0.1,1.7,11.2-1.1,14.3c-2.9,3.1-8.5,4.1-10.5,1.7c-2.2-2.7-2.1-14.8,2.4-18
				C515.3,169.4,520.1,174.6,520.1,174.6z"/>
			<path class="st7" d="M512.6,166.6c3.5,0.7,5.7,2.8,6.5,3.7c1.6,0.2,3.7,1.1,5.9,4.7c2.7,4.5,0.7,9.5-2.5,11.9
				c-3.2,2.4-3.1,5.3-3.1,5.3l-0.5-1.5c-0.4-1.1-0.5-2.3-0.4-3.4c0.1-0.7,0.2-1.4,0.5-2.1c0.8-1.6-1.6-2.7-2.3-4.1
				c-0.5-1.1-0.5-3.4-1.4-5.2l-1-1.3c0,0-2.2-1.8-4.4-1.2C507.8,173.9,508.1,165.6,512.6,166.6z"/>
			<path class="st18" d="M516.9,183.1c0,1.4,0.6,2.5,1.4,2.5c0.8,0,1.4-1.1,1.5-2.5c0-1.4-0.6-2.5-1.4-2.5
				C517.6,180.6,516.9,181.7,516.9,183.1z"/>
		</g>
	</g>
	<g>
		<path d="M277.7,130.1l24.4,48.5l25.7-47.9c7.6-17.6-4.6-37.6-23.7-38.4c-0.3,0-0.6,0-0.9,0c-0.3,0-0.6,0-0.9,0
			C283.3,92.6,270.6,112.3,277.7,130.1z M290.2,120c0.1-7,5.8-12.6,12.8-12.5c7,0.1,12.6,5.8,12.5,12.8c-0.1,7-5.8,12.6-12.8,12.5
			C295.7,132.7,290.1,127,290.2,120z"/>
	</g>
	<path class="st3" d="M611.4,362.1H2.6c-1.4,0-2.6-1.2-2.6-2.7v-0.7c0-1.5,1.2-2.7,2.6-2.7h608.7c1.4,0,2.6,1.2,2.6,2.7v0.7
		C614,360.9,612.8,362.1,611.4,362.1z"/>
</g>
</svg>
